#!OML:ASF X:\für Bonn\!DataBase\2005_08_12_Daniel\c3d\Daniel.ASF
:FULLY-SPECIFIED
:DEGREES
109
root 4.4313 14.9127 0.606364 -17.1051 -88.2664 15.1498
lowerback 42.7675 0.374215 0.988858
upperback 8.90511 -0.959578 -3.55822
thorax -10.403 -0.943937 -3.83918
lowerneck -1.82996 -1.57754 -0.0279456
upperneck -20.3183 -2.60098 1.4262
head -5.81679 -1.66194 0.600451
rclavicle -1.39149e-014 2.62396e-014
rhumerus -6.57392 17.4212 -101.216
rradius 58.4344
rwrist 14.9284
rhand -28.6954 -3.5284
rfingers 7.12502
rthumb -2.05756 326.502
lclavicle -1.39149e-014 2.62396e-014
lhumerus -187.693 204.433 -76.5513
lradius 60.6879
lwrist 42.5963
lhand -30.9174 21.1635
lfingers 7.12502
lthumb -4.20341 51.1018
rfemur -37.109 -8.60195 10.2858
rtibia 73.584
rfoot 330.059 5.26936
rtoes -12.773
lfemur -41.7426 -9.69636 -11.4594
ltibia 74.0047
lfoot -31.0852 -8.24099
ltoes -2.13701
110
root 4.38705 14.7977 0.603346 -20.7507 -88.3259 17.9218
lowerback 42.6126 0.370427 1.01215
upperback 8.82942 -0.944264 -3.56825
thorax -10.443 -0.935648 -3.86985
lowerneck -1.4961 -1.55872 0.0476237
upperneck -20.1361 -2.59056 1.18409
head -5.82002 -1.63488 0.512223
rclavicle 5.96354e-015 2.54444e-014
rhumerus -4.9468 18.2716 -100.727
rradius 59.641
rwrist 15.4542
rhand -29.8218 -3.20961
rfingers 7.12502
rthumb -3.14541 326.834
lclavicle 5.96354e-015 2.54444e-014
lhumerus -186.837 205.304 -76.963
lradius 61.9344
lwrist 43.088
lhand -31.5133 20.2715
lfingers 7.12502
lthumb -4.77884 50.1976
rfemur -37.013 -8.92614 9.90318
rtibia 75.2604
rfoot 329.946 6.00895
rtoes -12.8837
lfemur -41.3943 -9.35123 -11.6221
ltibia 75.3811
lfoot -31.578 -8.83423
ltoes -1.99293
111
root 4.34046 14.6853 0.599812 -24.3516 -88.3556 20.6573
lowerback 42.4364 0.366289 1.02596
upperback 8.73925 -0.926874 -3.55465
thorax -10.4916 -0.925566 -3.87111
lowerneck -1.2605 -1.54934 0.0945665
upperneck -19.8531 -2.59366 0.934029
head -5.77457 -1.61088 0.424587
rclavicle -2.38542e-015 -2.46493e-014
rhumerus -3.20721 19.0196 -100.152
rradius 60.9277
rwrist 16.2774
rhand -31.2733 -2.54955
rfingers 7.12502
rthumb -4.54702 327.519
lclavicle -2.38542e-015 -2.46493e-014
lhumerus -185.879 206.193 -77.3993
lradius 63.2667
lwrist 43.3654
lhand -32.0958 19.1854
lfingers 7.12502
lthumb -5.34118 49.0981
rfemur -36.8911 -9.25314 9.48372
rtibia 76.9009
rfoot 329.923 6.79333
rtoes -12.8382
lfemur -41.0407 -9.03611 -11.7717
ltibia 76.7337
lfoot -32.0034 -9.43326
ltoes -1.85626
112
root 4.29148 14.5729 0.59594 -27.8243 -88.3268 23.244
lowerback 42.2626 0.329899 1.05753
upperback 8.65459 -0.945291 -3.5678
thorax -10.5382 -0.93155 -3.89504
lowerneck -1.12779 -1.53397 0.171693
upperneck -19.4609 -2.58473 0.679236
head -5.67792 -1.58206 0.32769
rclavicle 3.18055e-015 0
rhumerus -1.31132 19.6654 -99.5267
rradius 62.2876
rwrist 17.2588
rhand -32.8845 -1.55984
rfingers 7.12502
rthumb -6.10274 328.548
lclavicle 3.18055e-015 0
lhumerus -184.817 207.11 -77.965
lradius 64.8442
lwrist 43.4584
lhand -32.6294 18.1184
lfingers 7.12502
lthumb -5.85637 48.0174
rfemur -36.7061 -9.60433 9.01366
rtibia 78.515
rfoot 329.971 7.58225
rtoes -12.7173
lfemur -40.664 -8.76077 -11.9372
ltibia 78.0601
lfoot -32.3521 -9.9904
ltoes -1.67351
113
root 4.24025 14.4612 0.59229 -29.8889 -88.2862 24.4421
lowerback 42.0798 0.282673 1.11391
upperback 8.54268 -0.958539 -3.5529
thorax -10.6116 -0.934698 -3.90415
lowerneck -1.05248 -1.52692 0.177674
upperneck -18.9829 -2.58132 0.457147
head -5.54352 -1.55273 0.252076
rclavicle 1.03368e-014 1.59028e-015
rhumerus 0.662845 20.2256 -98.7893
rradius 63.7622
rwrist 18.3739
rhand -34.6378 -0.366629
rfingers 7.12502
rthumb -7.79515 329.797
lclavicle 1.03368e-014 1.59028e-015
lhumerus -183.663 208.015 -78.5707
lradius 66.6447
lwrist 43.3738
lhand -33.0936 17.083
lfingers 7.12502
lthumb -6.3046 46.9691
rfemur -36.4937 -9.97704 8.55028
rtibia 80.097
rfoot 330.102 8.36009
rtoes -12.6932
lfemur -40.3318 -8.52448 -12.0443
ltibia 79.3978
lfoot -32.6108 -10.6137
ltoes -1.53582
114
root 4.18907 14.3487 0.590136 -32.7603 -88.2262 26.4488
lowerback 41.8827 0.242234 1.1419
upperback 8.44638 -0.976193 -3.53376
thorax -10.6622 -0.939612 -3.8919
lowerneck -1.02641 -1.51588 0.204637
upperneck -18.4725 -2.57851 0.185213
head -5.39218 -1.52313 0.157094
rclavicle 9.14409e-015 2.38542e-014
rhumerus 2.71459 20.6821 -97.9523
rradius 65.4336
rwrist 19.4621
rhand -36.3468 1.05466
rfingers 7.12502
rthumb -9.44443 331.286
lclavicle 9.14409e-015 2.38542e-014
lhumerus -182.393 208.855 -79.2524
lradius 68.7524
lwrist 43.0633
lhand -33.4019 16.1516
lfingers 7.12502
lthumb -6.60218 46.0287
rfemur -36.274 -10.3339 8.01841
rtibia 81.6645
rfoot 330.363 9.15833
rtoes -12.7305
lfemur -40.0161 -8.28793 -12.1859
ltibia 80.737
lfoot -32.7486 -11.189
ltoes -1.37638
115
root 4.13689 14.2357 0.587567 -34.9708 -88.1622 27.8017
lowerback 41.6453 0.197153 1.19331
upperback 8.35523 -0.991178 -3.53183
thorax -10.6948 -0.943066 -3.91199
lowerneck -0.911645 -1.5087 0.292048
upperneck -18.0049 -2.57452 -0.0757253
head -5.27021 -1.49809 0.0574466
rclavicle 2.3059e-014 2.8625e-014
rhumerus 4.92144 21.0596 -97.0629
rradius 67.1759
rwrist 20.3896
rhand -37.944 2.53589
rfingers 7.12502
rthumb -10.9852 332.843
lclavicle 2.3059e-014 2.8625e-014
lhumerus -180.869 209.757 -80.1197
lradius 70.9715
lwrist 42.7323
lhand -33.6253 15.4622
lfingers 7.12502
lthumb -6.81785 45.3324
rfemur -36.0252 -10.6955 7.47817
rtibia 83.1888
rfoot 330.776 10.021
rtoes -12.4792
lfemur -39.7335 -8.04299 -12.2927
ltibia 82.0912
lfoot -32.8074 -11.77
ltoes -1.22713
116
root 4.08487 14.1231 0.586073 -36.4122 -88.093 28.4164
lowerback 41.3928 0.147176 1.28418
upperback 8.23475 -0.99123 -3.52583
thorax -10.7546 -0.939292 -3.95542
lowerneck -0.61908 -1.52204 0.347365
upperneck -17.6189 -2.59494 -0.31743
head -5.20323 -1.48358 -0.026698
rclavicle 1.19271e-015 3.4191e-014
rhumerus 7.32221 21.3954 -96.0109
rradius 68.9397
rwrist 21.1794
rhand -39.4665 3.8599
rfingers 7.12502
rthumb -12.4534 334.251
lclavicle 1.19271e-015 3.4191e-014
lhumerus -179.125 210.674 -81.1065
lradius 73.2767
lwrist 42.3952
lhand -33.7488 14.8123
lfingers 7.12502
lthumb -6.93709 44.6786
rfemur -35.7983 -11.0671 6.9419
rtibia 84.6723
rfoot 331.253 10.7883
rtoes -12.406
lfemur -39.4978 -7.81114 -12.3751
ltibia 83.4339
lfoot -32.7952 -12.3089
ltoes -1.1033
